<svg xmlns="http://www.w3.org/2000/svg" viewBox="0 0 800 360" role="img"><title>BI &amp; Analytics Platform — concept illustration</title><defs><pattern id="grid" width="32" height="32" patternUnits="userSpaceOnUse"><path d="M32 0H0V32" fill="none" stroke="#263542" stroke-width=".6"/></pattern></defs><rect width="800" height="360" fill="#101b26"/><rect width="800" height="360" fill="url(#grid)"/><g font-family="system-ui,sans-serif"><rect x="160" y="172" width="36" height="48" rx="7" fill="#b8a2ff" opacity="0.3"/><rect x="230" y="140" width="36" height="80" rx="7" fill="#b8a2ff" opacity="0.42"/><rect x="300" y="154" width="36" height="66" rx="7" fill="#b8a2ff" opacity="0.54"/><rect x="370" y="104" width="36" height="116" rx="7" fill="#b8a2ff" opacity="0.6599999999999999"/><rect x="440" y="82" width="36" height="138" rx="7" fill="#b8a2ff" opacity="0.78"/><rect x="510" y="52" width="36" height="168" rx="7" fill="#b8a2ff" opacity="0.8999999999999999"/><rect x="32" y="274" width="225" height="52" rx="9" fill="#182530" stroke="#b8a2ff" stroke-opacity=".3"/><text x="144" y="305" text-anchor="middle" fill="#eaf1f6" font-size="14">Data warehouse / ETL</text><rect x="289" y="274" width="225" height="52" rx="9" fill="#182530" stroke="#b8a2ff" stroke-opacity=".3"/><text x="401" y="305" text-anchor="middle" fill="#eaf1f6" font-size="14">Demand forecasting</text><rect x="546" y="274" width="225" height="52" rx="9" fill="#182530" stroke="#b8a2ff" stroke-opacity=".3"/><text x="658" y="305" text-anchor="middle" fill="#eaf1f6" font-size="14">Power BI dashboards</text></g></svg>