<svg xmlns="http://www.w3.org/2000/svg" viewBox="0 0 800 360" role="img"><title>OctoNorm — Industrial Visual Quality Control — concept illustration</title><defs><pattern id="grid" width="32" height="32" patternUnits="userSpaceOnUse"><path d="M32 0H0V32" fill="none" stroke="#263542" stroke-width=".6"/></pattern></defs><rect width="800" height="360" fill="#101b26"/><rect width="800" height="360" fill="url(#grid)"/><g font-family="system-ui,sans-serif"><rect x="155" y="80" width="110" height="95" rx="16" fill="#b9f87a" opacity=".12"/><path d="M147 100v-28h28 M245 72h28v28 M147 155v28h28 M245 183h28v-28" fill="none" stroke="#b9f87a" stroke-width="3"/><rect x="310" y="105" width="160" height="100" rx="16" fill="#b9f87a" opacity=".12"/><path d="M302 125v-28h28 M450 97h28v28 M302 185v28h28 M450 213h28v-28" fill="none" stroke="#b9f87a" stroke-width="3"/><rect x="505" y="65" width="120" height="120" rx="16" fill="#b9f87a" opacity=".12"/><path d="M497 85v-28h28 M605 57h28v28 M497 165v28h28 M605 193h28v-28" fill="none" stroke="#b9f87a" stroke-width="3"/><rect x="32" y="274" width="225" height="52" rx="9" fill="#182530" stroke="#b9f87a" stroke-opacity=".3"/><text x="144" y="305" text-anchor="middle" fill="#eaf1f6" font-size="14">Visual inspection</text><rect x="289" y="274" width="225" height="52" rx="9" fill="#182530" stroke="#b9f87a" stroke-opacity=".3"/><text x="401" y="305" text-anchor="middle" fill="#eaf1f6" font-size="14">AI pipelines</text><rect x="546" y="274" width="225" height="52" rx="9" fill="#182530" stroke="#b9f87a" stroke-opacity=".3"/><text x="658" y="305" text-anchor="middle" fill="#eaf1f6" font-size="14">Operator dashboard</text></g></svg>