<svg xmlns="http://www.w3.org/2000/svg" viewBox="0 0 800 360" role="img"><title>Video Emotion Recognition — concept illustration</title><defs><pattern id="grid" width="32" height="32" patternUnits="userSpaceOnUse"><path d="M32 0H0V32" fill="none" stroke="#263542" stroke-width=".6"/></pattern></defs><rect width="800" height="360" fill="#101b26"/><rect width="800" height="360" fill="url(#grid)"/><g font-family="system-ui,sans-serif"><rect x="140" y="65" width="145" height="135" rx="12" fill="#f29fc1" fill-opacity=".06" stroke="#f29fc1"/><circle cx="212" cy="117" r="28" fill="none" stroke="#f29fc1"/><path d="M180 175q32-42 64 0" fill="none" stroke="#f29fc1"/><rect x="315" y="65" width="145" height="135" rx="12" fill="#f29fc1" fill-opacity=".06" stroke="#f29fc1"/><circle cx="387" cy="117" r="28" fill="none" stroke="#f29fc1"/><path d="M355 175q32-42 64 0" fill="none" stroke="#f29fc1"/><rect x="490" y="65" width="145" height="135" rx="12" fill="#f29fc1" fill-opacity=".06" stroke="#f29fc1"/><circle cx="562" cy="117" r="28" fill="none" stroke="#f29fc1"/><path d="M530 175q32-42 64 0" fill="none" stroke="#f29fc1"/><rect x="32" y="274" width="225" height="52" rx="9" fill="#182530" stroke="#f29fc1" stroke-opacity=".3"/><text x="144" y="305" text-anchor="middle" fill="#eaf1f6" font-size="14">CREMA-D video</text><rect x="289" y="274" width="225" height="52" rx="9" fill="#182530" stroke="#f29fc1" stroke-opacity=".3"/><text x="401" y="305" text-anchor="middle" fill="#eaf1f6" font-size="14">Deep learning pipeline</text><rect x="546" y="274" width="225" height="52" rx="9" fill="#182530" stroke="#f29fc1" stroke-opacity=".3"/><text x="658" y="305" text-anchor="middle" fill="#eaf1f6" font-size="14">Flask / Streamlit</text></g></svg>